<svg xmlns="http://www.w3.org/2000/svg" width="187" height="58" viewBox="0 0 187 58"><rect width="58" height="58" fill="#ef6700"/><g transform="translate(13.324 14.108)"><path d="M25.56,101.509l-12.4,6.812a.689.689,0,0,1-.758-.063l-8.6-6.8L.228,106.676a1.3,1.3,0,0,0,.215,1.714L11.985,118.5a1.487,1.487,0,0,0,1.69.186L32.059,108.7a1.092,1.092,0,0,0,.232-1.752l-5.565-5.291A1,1,0,0,0,25.56,101.509Zm-12.8,15.757V110a.691.691,0,0,1,.364-.607L25.669,102.5a.607.607,0,0,1,.707.092l5.035,4.788a.422.422,0,0,1-.089.677l-17.81,9.656a.513.513,0,0,1-.757-.449Z" transform="translate(0 -89.083)" fill="#fff"/><path d="M58.616,9.8,48.669.334a1.317,1.317,0,0,0-2,.209L39.58,10.888l7.582,6a.711.711,0,0,0,.8.056l10.544-6.187a.607.607,0,0,0,.11-.957ZM47.535,1.547a.429.429,0,0,1,.728-.312l9.006,8.55a.422.422,0,0,1-.078.671L47.886,15.9a.233.233,0,0,1-.351-.2Z" transform="translate(-34.779 0.034)" fill="#fff"/></g><rect width="129" height="58" transform="translate(58)" fill="#004588"/><path d="M-26.693-13.972h3.011V1.412h-3.011V-4.961h-5.714V1.412H-35.44V-13.972h3.033v6.11h5.714Zm14.615,0h3.011V1.412h-3.011V-4.961h-5.714V1.412h-3.033V-13.972h3.033v6.11h5.714Zm14.615,0v2.9H-3.176V1.412H-6.209V-13.972ZM12.362,1.412l-.923-2.769H5.307L4.384,1.412H1.109L6.494-13.972h3.758L15.659,1.412Zm-6.088-5.6h4.22l-2.11-6.286ZM23.9,1.72A7.7,7.7,0,0,1,18.164-.588,7.812,7.812,0,0,1,15.9-6.28a7.8,7.8,0,0,1,2.264-5.7,7.714,7.714,0,0,1,5.736-2.3,7.841,7.841,0,0,1,3.857.978,7.16,7.16,0,0,1,2.758,2.648L27.9-9.137a4.061,4.061,0,0,0-1.626-1.615,4.828,4.828,0,0,0-2.374-.582,4.826,4.826,0,0,0-3.615,1.407A5,5,0,0,0,18.912-6.28a4.972,4.972,0,0,0,1.374,3.626A4.826,4.826,0,0,0,23.9-1.247a4.891,4.891,0,0,0,2.385-.582A3.937,3.937,0,0,0,27.9-3.423l2.615,1.516A7.181,7.181,0,0,1,27.769.742,7.823,7.823,0,0,1,23.9,1.72ZM40.626-13.972h3.033L39.044-2.829Q37.2,1.654,32.978,1.412V-1.423a3.274,3.274,0,0,0,1.989-.341A3.4,3.4,0,0,0,36.23-3.225L31.2-13.972H34.23l3.363,7.429Z" transform="translate(118.439 35.279)" fill="#fff"/></svg>